<svg width="1200" height="630" viewBox="0 0 1200 630" fill="none" xmlns="http://www.w3.org/2000/svg" role="img" aria-labelledby="title desc">
  <title id="title">LegalPage AI social preview</title>
  <desc id="desc">Premium social preview image for LegalPage AI.</desc>
  <defs>
    <linearGradient id="bg" x1="0" y1="0" x2="1200" y2="630" gradientUnits="userSpaceOnUse">
      <stop stop-color="#F8FAFC"/>
      <stop offset="1" stop-color="#EEF2FF"/>
    </linearGradient>
    <linearGradient id="brand" x1="88" y1="92" x2="244" y2="248" gradientUnits="userSpaceOnUse">
      <stop stop-color="#2563EB"/>
      <stop offset="1" stop-color="#7C3AED"/>
    </linearGradient>
    <linearGradient id="accent" x1="764" y1="74" x2="1116" y2="500" gradientUnits="userSpaceOnUse">
      <stop stop-color="#2563EB" stop-opacity="0.18"/>
      <stop offset="1" stop-color="#7C3AED" stop-opacity="0.18"/>
    </linearGradient>
    <filter id="cardShadow" x="-20%" y="-20%" width="140%" height="140%" color-interpolation-filters="sRGB">
      <feDropShadow dx="0" dy="24" stdDeviation="30" flood-color="#1E293B" flood-opacity="0.12"/>
    </filter>
  </defs>
  <rect width="1200" height="630" fill="url(#bg)"/>
  <circle cx="1008" cy="158" r="228" fill="url(#accent)"/>
  <circle cx="1066" cy="522" r="176" fill="#DBEAFE" fill-opacity="0.46"/>
  <rect x="76" y="74" width="156" height="156" rx="42" fill="url(#brand)"/>
  <path d="M154 113V189" stroke="white" stroke-width="9" stroke-linecap="round"/>
  <path d="M123 132H185" stroke="white" stroke-width="9" stroke-linecap="round"/>
  <path d="M122 132L104 168H140L122 132Z" stroke="white" stroke-width="7" stroke-linejoin="round"/>
  <path d="M186 132L168 168H204L186 132Z" stroke="white" stroke-width="7" stroke-linejoin="round"/>
  <path d="M114 201H194" stroke="white" stroke-width="9" stroke-linecap="round"/>
  <text x="268" y="140" fill="#0F172A" font-family="Inter, ui-sans-serif, system-ui, -apple-system, BlinkMacSystemFont, 'Segoe UI', sans-serif" font-size="42" font-weight="780">LegalPage AI</text>
  <text x="268" y="183" fill="#64748B" font-family="Inter, ui-sans-serif, system-ui, -apple-system, BlinkMacSystemFont, 'Segoe UI', sans-serif" font-size="22" font-weight="560">AI legal pages for modern SaaS, apps, stores, and agencies</text>
  <text x="78" y="344" fill="#0B1026" font-family="Inter, ui-sans-serif, system-ui, -apple-system, BlinkMacSystemFont, 'Segoe UI', sans-serif" font-size="68" font-weight="820" letter-spacing="-1.6">Generate Legal Pages</text>
  <text x="78" y="424" fill="#0B1026" font-family="Inter, ui-sans-serif, system-ui, -apple-system, BlinkMacSystemFont, 'Segoe UI', sans-serif" font-size="68" font-weight="820" letter-spacing="-1.6">in Seconds</text>
  <text x="82" y="486" fill="#475569" font-family="Inter, ui-sans-serif, system-ui, -apple-system, BlinkMacSystemFont, 'Segoe UI', sans-serif" font-size="25" font-weight="520">Privacy, Terms, Cookies, Refunds, GDPR, DPA and AI Usage.</text>
  <g filter="url(#cardShadow)">
    <rect x="776" y="216" width="344" height="298" rx="28" fill="white"/>
    <rect x="808" y="252" width="280" height="50" rx="14" fill="#EEF2FF"/>
    <rect x="808" y="326" width="280" height="50" rx="14" fill="#F8FAFC"/>
    <rect x="808" y="400" width="280" height="50" rx="14" fill="#F8FAFC"/>
    <circle cx="835" cy="277" r="11" fill="#2563EB"/>
    <circle cx="835" cy="351" r="11" fill="#7C3AED"/>
    <circle cx="835" cy="425" r="11" fill="#22C55E"/>
    <rect x="860" y="270" width="170" height="12" rx="6" fill="#CBD5E1"/>
    <rect x="860" y="344" width="190" height="12" rx="6" fill="#CBD5E1"/>
    <rect x="860" y="418" width="146" height="12" rx="6" fill="#CBD5E1"/>
    <rect x="808" y="468" width="138" height="18" rx="9" fill="#DBEAFE"/>
    <rect x="958" y="468" width="130" height="18" rx="9" fill="#EDE9FE"/>
  </g>
</svg>
